General
Complete name                            : Aurora Viper - Anal.flv
Format                                   : Flash Video
File size                                : 164 MiB
Duration                                 : 21mn 58s
Overall bit rate                         : 1 044 Kbps
Tagging application                      : Yet Another Metadata Injector for FLV - Version 1.8

Video
Format                                   : AVC
Format/Info                              : Advanced Video Codec
Format profile                           : Main@L3.0
Format settings, CABAC                   : Yes
Format settings, ReFrames                : 2 frames
Codec ID                                 : 7
Duration                                 : 21mn 57s
Bit rate                                 : 950 Kbps
Width                                    : 854 pixels
Height                                   : 480 pixels
Display aspect ratio                     : 16:9
Frame rate mode                          : Constant
Frame rate                               : 24.000 fps
Color space                              : YUV
Chroma subsampling                       : 4:2:0
Bit depth                                : 8 bits
Scan type                                : Progressive
Bits/(Pixel*Frame)                       : 0.097
Stream size                              : 153 MiB (93%)

Audio
Format                                   : MPEG Audio
Format version                           : Version 1
Format profile                           : Layer 3
Mode                                     : Joint stereo
Mode extension                           : MS Stereo
Codec ID                                 : 2
Codec ID/Hint                            : MP3
Duration                                 : 21mn 58s
Bit rate mode                            : Constant
Bit rate                                 : 64.0 Kbps
Channel(s)                               : 2 channels
Sampling rate                            : 44.1 KHz
Compression mode                         : Lossy
Stream size                              : 10.6 MiB (6%)




 
http://img827.imageshack.us/img827/4417/auroraviperanalflvthumb.jpg
